<svg width="23" height="23" viewBox="0 0 23 23" fill="none" xmlns="http://www.w3.org/2000/svg">
<path fill-rule="evenodd" clip-rule="evenodd" d="M3.75 0H5.65086H16.8491H18.75L18.4375 1.875L18.2812 2.8125H20.625H22.5V4.6875V6.40625C22.5 9.42995 20.3528 11.9521 17.5 12.5312V10.6001C19.3072 10.0622 20.625 8.38814 20.625 6.40625V4.6875H17.9688L17.072 10.068C16.65 12.6 14.6545 14.5304 12.1875 14.9256V17.5H13.3221C15.0428 17.5 16.5428 18.6711 16.9601 20.3405L17.0312 20.625L17.5 22.5H15.5673H6.93271H5L5.46875 20.625L5.53988 20.3405C5.95722 18.6711 7.45716 17.5 9.17791 17.5H10.3125V14.9256C7.84555 14.5304 5.85001 12.6 5.42801 10.068L4.53125 4.6875H1.875V6.40625C1.875 8.38814 3.19282 10.0622 5 10.6001V12.5312C2.1472 11.9521 0 9.42995 0 6.40625V4.6875V2.8125H1.875H4.21875L4.0625 1.875L3.75 0ZM7.27749 9.75978L5.96336 1.875H16.5366L15.2225 9.75978C14.8989 11.7017 13.2187 13.125 11.25 13.125C9.2813 13.125 7.60115 11.7017 7.27749 9.75978ZM7.41008 20.625C7.6723 19.882 8.37731 19.375 9.17791 19.375H13.3221C14.1227 19.375 14.8277 19.882 15.0899 20.625H7.41008Z" fill="#00E1D6"/>
</svg>
