<svg width="25" height="18" viewBox="0 0 25 18" fill="none" xmlns="http://www.w3.org/2000/svg">
<path fill-rule="evenodd" clip-rule="evenodd" d="M18.0216 1.875L6.92988 1.875C4.66442 1.875 2.77369 3.60443 2.57222 5.86092L1.88272 13.5833C1.78478 14.6802 2.64894 15.625 3.7503 15.625H4.65976C5.15704 15.625 5.63395 15.4275 5.98558 15.0758L7.35062 13.7108C7.72569 13.3357 8.2344 13.125 8.76483 13.125L16.1613 13.125C16.6917 13.125 17.2004 13.3357 17.5755 13.7108L18.9405 15.0758C19.2922 15.4275 19.7691 15.625 20.2664 15.625H21.2357C22.3403 15.625 23.2056 14.6748 23.1025 13.575L22.3775 5.84163C22.1667 3.59345 20.2796 1.875 18.0216 1.875ZM6.92988 0C3.6935 0 0.992465 2.47062 0.704648 5.69417L0.0151538 13.4165C-0.180738 15.6105 1.54758 17.5 3.7503 17.5H4.65976C5.65432 17.5 6.60814 17.1049 7.31141 16.4017L8.67644 15.0366C8.69989 15.0132 8.73168 15 8.76483 15L16.1613 15C16.1944 15 16.2262 15.0132 16.2497 15.0366L17.6147 16.4016C18.318 17.1049 19.2718 17.5 20.2664 17.5H21.2357C23.445 17.5 25.1755 15.5997 24.9693 13.4L24.2443 5.66662C23.9432 2.45493 21.2474 0 18.0216 0L6.92988 0ZM15.5937 7.50789C16.6324 7.50789 17.4743 6.66667 17.4743 5.62897C17.4743 4.59127 16.6324 3.75005 15.5937 3.75005C14.555 3.75005 13.7131 4.59127 13.7131 5.62897C13.7131 6.66667 14.555 7.50789 15.5937 7.50789ZM19.3437 11.2579C20.3824 11.2579 21.2243 10.4167 21.2243 9.37897C21.2243 8.34127 20.3824 7.50005 19.3437 7.50005C18.305 7.50005 17.4631 8.34127 17.4631 9.37897C17.4631 10.4167 18.305 11.2579 19.3437 11.2579ZM5.90056 11.25V9.0625H3.71306V7.1875H5.90056V5L7.77556 5V7.1875H9.96306V9.0625H7.77556V11.25H5.90056Z" fill="#00E1D6"/>
</svg>
