<svg width="24" height="23" viewBox="0 0 24 23" fill="none" xmlns="http://www.w3.org/2000/svg">
<path fill-rule="evenodd" clip-rule="evenodd" d="M14.64 8.72707L14.2042 7.75838L11.9617 2.77345L9.71922 7.75836L9.28347 8.72704L8.22857 8.85128L2.77085 9.49402L6.91136 12.9363L7.81168 13.6848L7.53432 14.8223L6.26789 20.0161L11.0438 17.3351L11.9616 16.8199L12.8794 17.3351L17.6565 20.0167L16.391 14.8219L16.1139 13.6846L17.014 12.9363L21.1544 9.49411L15.6949 8.85128L14.64 8.72707ZM8.00927 6.98915L1.10527 7.80222C0.0144205 7.93068 -0.392265 9.30266 0.452354 10.0048L5.71269 14.3781L4.10566 20.9688C3.84677 22.0305 4.97901 22.8898 5.93196 22.3549L11.9616 18.9701L17.9921 22.3553C18.945 22.8902 20.0771 22.0311 19.8185 20.9694L18.2127 14.3781L23.473 10.0049C24.3176 9.30271 23.9109 7.93072 22.82 7.80227L15.9141 6.98915L13.1016 0.737176C12.6594 -0.245732 11.2638 -0.245724 10.8217 0.737191L8.00927 6.98915Z" fill="#00E1D6"/>
</svg>
